<svg width="306" height="359" viewBox="0 0 306 359" fill="none" xmlns="http://www.w3.org/2000/svg">
<path d="M236.1 278.4C235.4 278.9 234.6 279.4 233.9 279.9C233.1 280.4 232.4 280.9 231.6 281.3C230.9 281.7 230.3 282.1 229.6 282.5C229.5 282.6 229.4 282.6 229.3 282.7C227 284.1 224.6 285.4 222.2 286.6C221.5 287 220.7 287.4 220 287.7C220 287.7 219.9 287.8 219.8 287.8L217.4 289C215.8 289.8 214.1 290.5 212.5 291.2C211.7 291.6 210.8 291.9 210 292.2C209.2 292.5 208.3 292.9 207.5 293.2C206.7 293.5 205.8 293.9 205 294.2H204.9C204.1 294.5 203.2 294.8 202.4 295.1C200.6 295.7 198.7 296.3 196.9 296.9C196.3 297.1 195.6 297.3 195 297.5C193.1 298.1 191.2 298.6 189.3 299C188.6 299.2 187.9 299.3 187.1 299.5C185.3 299.9 183.4 300.3 181.6 300.7C181.2 300.8 180.9 300.8 180.5 300.9C179.9 301 179.2 301.1 178.6 301.2C177.7 301.3 176.9 301.5 176 301.6C175.6 301.7 175.2 301.7 174.8 301.8C174.3 301.9 173.7 302 173.1 302C171.5 302.2 169.8 302.4 168.2 302.6C167.7 302.7 167.1 302.7 166.6 302.8H166.5C165.8 302.9 165.1 302.9 164.4 303C163.7 303.1 163 303.1 162.3 303.1C161.9 303.1 161.4 303.2 161 303.2C160.2 303.2 159.5 303.3 158.8 303.3C157.8 303.3 156.9 303.4 155.9 303.4H150.9C108.7 302.8 70.8002 284.9 43.7002 256.5C43.7002 256.5 43.7002 256.4 43.6002 256.4C40.6002 253.7 43.2002 239.3 55.3002 230.2C70.5002 218.7 106.9 211.5 106.9 211.5C106.9 211.5 121 209.2 173.3 220.1C203.9 226.5 227.2 235.8 240.2 261C242.9 266.2 245.6 274.2 236.1 278.4Z" fill="white"/>
<path d="M173.6 219C192.8 222.9 213.3 227.1 229.1 239.8C234.4 244.1 237.9 250.4 240.8 256.5C242.2 259.5 243.6 262.6 244.7 265.9C245.3 268.1 246.2 270.6 245.7 273.2C245.6 273.9 245 274.8 244.5 275.3C242.2 277.6 239.7 279 237.2 280.8C222.5 291 205.6 298.2 188.1 302C149.1 310.5 106.9 303.9 72.6002 283.4C61.2002 276.5 50.7002 268.1 41.7002 258.2C40.7002 257 40.7002 255 40.7002 253.7C40.8002 250.7 41.6002 247.8 42.6002 245.1C45.0002 238.9 48.1002 232.7 53.4002 228.4C57.2002 225.8 61.3002 223.6 65.5002 221.8C78.7002 216.2 92.6002 212.3 106.9 210.7C108.1 210.6 108.3 212.3 107.1 212.5C93.4002 215.3 79.8002 219.5 67.1002 225.2C62.5002 227.5 57.6002 229.5 53.9002 233.1C50.4002 236.9 47.9002 241.6 45.9002 246.4C44.6002 249.3 43.7002 253.9 44.1002 256.2C50.4002 263.7 57.8002 270.3 65.8002 276C109.6 306.6 176.1 308.6 222.7 283.1C226.9 280.8 231 278.2 234.9 275.5C236.8 274.2 238.8 273.1 240.3 271.6C240.4 271.5 240.3 271.6 240.3 271.7C240.3 271.8 240.2 271.9 240.2 271.9C240.3 270.7 239.9 269.1 239.4 267.5C237.6 261.7 234.7 255.6 231.6 250.3C226.7 242.4 218.4 237.4 210 233.4C204.2 230.7 198.1 228.6 191.9 226.6C185.7 224.6 179.4 222.9 173.1 221.4C171.5 221 172 218.7 173.6 219Z" fill="black"/>
<path d="M89.0996 210.6C89.0996 210.6 103.701 204.8 106.401 204.6L106.601 206.9C106.601 206.9 95.0006 211.9 94.3006 212.7C93.7006 213.4 89.0996 210.6 89.0996 210.6Z" fill="#7E5D6D"/>
<path d="M269.3 340.4H16.4004C16.4004 340.4 17.9004 294 33.1004 260.9C44.6004 235.9 72.2004 219.4 92.3004 212.2C98.0004 210.2 102.4 208 106.5 206.9C106.5 207.4 106.8 211.1 106.8 211.5C106.8 211.5 118.5 194.1 154.2 196C170.7 196.9 183.9 201.4 183.9 201.4C185.8 201 183.1 210.8 184.8 210.3C185.4 210.1 186.6 216.1 187.1 215.9C200 219.3 215.8 228.9 238.7 248.1C264.7 269.9 269.3 340.4 269.3 340.4Z" fill="black"/>
<path d="M220.6 238.7C227.062 238.7 232.3 233.462 232.3 227C232.3 220.538 227.062 215.3 220.6 215.3C214.139 215.3 208.9 220.538 208.9 227C208.9 233.462 214.139 238.7 220.6 238.7Z" fill="#FFFF8D"/>
<path d="M65.9004 340.4L61.4004 303.3M240.6 290.7C240.6 290.7 237.6 298 238.5 305.3C239.4 312.6 242 323.3 238.3 340.4" stroke="#544D4D" stroke-width="3" stroke-miterlimit="10" stroke-linecap="round" stroke-linejoin="round"/>
<path d="M89.0998 210.601C90.9998 210.001 94.2998 210.601 95.2998 212.301C99.1998 218.701 108.6 237.401 112.5 274.501C115.6 303.501 110.9 355.701 110.9 355.701L13.7998 351.101C13.7998 351.101 16.6998 301.801 25.1998 268.701C33.5998 236.601 55.3998 222.201 89.0998 210.601Z" fill="white"/>
<path d="M88.4002 208.5C91.7002 207.6 95.7002 208.4 97.5002 211.5C102.9 220.6 106.3 230.8 109 241C112.2 253.5 114.3 266.3 115.4 279.1C117 304.8 115.5 330.3 113.5 356C113.4 357.4 112.2 358.4 110.8 358.3L13.7002 353.7C12.3002 353.7 11.2002 352.5 11.2002 351C12.2002 336.4 13.7002 322 15.6002 307.5C17.7002 293 19.9002 278.6 24.0002 264.5C33.5002 233 59.1002 218.5 88.4002 208.5ZM89.9002 212.8C76.4002 217.4 61.7002 220.7 50.5002 230.1C45.1002 234.7 41.1002 240.9 37.3002 246.8C29.4002 258.7 26.6002 272.9 24.2002 286.9C20.5002 308.2 18.3002 329.8 16.5002 351.3C16.5002 351.3 14.0002 348.6 14.1002 348.6L111.2 353.2L108.5 355.5C109.3 342.8 110.1 330.1 110.5 317.4C111.8 286 110.1 253.8 98.7002 224.3C97.2002 220.6 95.6002 217 93.5002 213.6C92.7002 212.8 90.8002 212.5 89.9002 212.8Z" fill="black"/>
<path d="M189.7 216.7C189.7 216.7 220.6 274.8 211.6 352.4H278.3C278.3 352.4 278 290.8 263 257.3C248 223.9 195.5 214.1 195.5 214.1C195.5 214.1 192.2 215.8 189.7 216.7Z" fill="white"/>
<path d="M192.1 217.6C192.4 217.3 192.5 216.7 192.4 216.3V216.2C192.9 217.3 193.5 218.4 194 219.5C208.4 251.6 215.4 286.9 215.8 322C215.9 325.2 215.6 332 215.5 335.2C215.4 340.4 214.5 347.5 214.2 352.7L211.7 349.8H278.4L275.8 352.4C275.8 345 275.4 337.5 275 330.1C273.3 305 269.6 261.5 252.1 242.9C238.5 228.3 214.5 219.5 195.1 216.6L196.7 216.4C195.3 217.1 193.7 217.8 192.3 218.4L191.5 218.7L191.3 218.8C191.6 218.7 192 218.1 192.1 217.6ZM187.3 215.8C187.7 215.1 188.6 214.3 189.5 214L190.2 213.7C191.6 213.1 193.1 212.4 194.5 211.7C195 211.5 195.5 211.4 196 211.6C199.8 212.7 203.4 213.8 207 215C210.6 216.3 214.1 217.6 217.6 219.1C228 223.6 238.2 228.9 246.9 236.1C253.9 241.8 260.9 248.1 264.8 256.5C271.9 272.6 275.2 290 277.6 307.3C279.7 322.3 280.7 337.3 280.9 352.4C280.9 353.8 279.8 355 278.3 355H211.6C210.1 355 208.9 353.6 209.1 352.1C209.5 346.9 210.3 340 210.4 334.9C210.5 331.8 210.8 325 210.7 322C210.5 291.9 204.9 261.7 194.3 233.5C192.4 228.5 190.3 223.5 188 218.8C187.4 218 187.1 216.7 187.3 215.8Z" fill="black"/>
<path d="M189.7 216.7L187.3 216C187.3 216 190.8 214.3 192.3 213.3L193.2 212.8C193.2 212.8 198 215 199.7 215.8C201.4 216.6 193.8 220.3 193.8 220.3C193.8 220.3 190 216.8 189.7 216.7Z" fill="#7E5D6D"/>
<path d="M80.8003 244.9C80.8003 244.9 67.0003 254.6 68.3003 264.9C69.6003 275.2 112.1 339.7 112.1 339.7C112.1 339.7 117.1 304.7 111.4 265.1C111.4 265.1 107.3 259.6 99.8003 254.1C94.8003 250.6 88.5003 247 80.8003 244.9Z" fill="white"/>
<path d="M81.3004 247.5C81.6004 247.5 81.9004 247.3 82.2004 247.1L82.0004 247.2C76.3004 250.8 69.3004 257.3 69.8004 264.6C70.4004 267.7 72.1004 270.8 73.6004 273.7C76.8004 279.8 80.3004 285.8 83.9004 291.8C91.1004 303.7 98.7004 315.4 106.5 326.9L114.4 338.4L109.7 339.4C110.5 333.4 111 327.2 111.3 321C112.3 302.5 111.6 283.9 109 265.6L109.5 266.8C105.8 262.2 101.2 258.2 96.4004 254.9C91.9004 251.9 87.1004 249.5 81.9004 247.9L81.7004 247.8C81.4004 247.7 81.4004 247.6 81.3004 247.5ZM80.4004 242.4C81.3004 242.5 82.4004 242.7 83.3004 243C92.0004 245.7 100 250.5 106.8 256.6C109.3 258.8 111.4 261 113.6 263.7C113.9 264 114 264.4 114.1 264.8C116.7 283.5 117.4 302.4 116.5 321.3C116.2 327.6 115.7 333.8 114.9 340.2C114.7 342.6 111.4 343.3 110.2 341.2C103.5 330 95.3004 316.5 88.7004 305.3C84.5004 298.1 78.6004 288.3 74.7004 281.1C72.5004 277 70.2004 272.9 68.5004 268.5C67.8004 266.9 67.4004 264.9 67.4004 263C68.1004 255 73.9004 248.8 79.2004 243.2C79.3004 242.8 79.9004 242.5 80.4004 242.4Z" fill="black"/>
<path d="M242.3 265C242.7 258.6 227.9 248.2 227.9 248.2C222 249.9 217.8 252.6 214.8 255.5C208.1 261.8 207.2 268.9 207.2 268.9L207.6 270.7C214.7 301.6 212.6 341.8 212.6 341.8C212.6 341.8 241.9 271.4 242.3 265Z" fill="white"/>
<path d="M241.1 264.9C240.6 259 231.3 252.9 226.4 250.3L228.6 250.7C219.6 253.2 211.6 259.9 209.7 269.3L209.6 268.3C211 274.3 212.2 280.5 212.9 286.6C215.3 305 215.8 323.4 215.1 341.9C215.1 342 210.2 340.8 210.2 340.8C215.3 330.1 222 314.2 226.7 303.1C229.4 296.8 231.9 290.4 234.4 284C236.8 277.7 239.6 271.4 241.1 264.9ZM242.9 265C242.3 268.5 241 271.7 239.9 275C236.5 284.7 232.6 294.3 229.1 304C225.8 312.8 219.7 329.1 216.6 337.8L214.9 342.7C213.9 345.5 209.7 344.6 210 341.6C210.7 323.5 210.2 305.2 207.8 287.2C207.1 281.2 205.9 275.3 204.6 269.5C204.4 268.4 204.8 267.3 205.1 266.3C208 256.1 217.2 248.5 227.2 245.8C228 245.5 228.8 245.7 229.4 246.2C231.7 248.8 235.2 252.2 237.4 254.9C239.7 257.7 242.9 260.9 242.9 265Z" fill="black"/>
<path d="M207.201 268.3C207.201 268.3 200.501 242.3 197.201 234C193.901 225.8 187.701 216.5 187.401 216C166.301 196.1 127.701 196.1 135.201 188.7C143.501 180.5 177.901 186.1 190.401 192.3C201.601 198.2 249.001 225.7 250.601 234.9C252.201 245.1 213.401 244.5 207.201 268.3Z" fill="white"/>
<path d="M207.2 270.9C206.1 270.8 204.9 269.8 204.6 268.7V268.6L204.5 268.2L204.3 267.4L203.9 265.7C201.3 255.7 198.8 245.2 195.4 235.5C193 229.1 189.5 223.1 185.8 217.2L186.1 217.5C182.5 214 178.2 211.2 173.8 208.7C164.7 203.8 154.8 200.7 144.9 197.8C141.5 196.5 133.2 195.1 132.7 190.9C132.7 186.5 139.5 184.6 142.7 184C155.9 182 169.4 184.4 182.1 187.9C185.3 188.9 188.5 190 191.5 191.5C192.6 192.1 195.6 193.8 196.7 194.4C205.8 199.6 214.7 205.1 223.5 210.9C232.3 216.7 241.2 222.3 248.6 230C254.6 236.2 251 240.2 244.4 243.1C235 247.3 224.7 250.2 217.1 257.1C214.4 259.6 212.2 262.5 210.9 265.8C210.4 266.9 210.4 267.4 209.9 268.7C209.4 269.5 208.1 270.6 207.2 270.9ZM207.2 265.8C206.6 265.4 205.5 265.8 205.2 266.3C205 266.7 205.2 266.3 205.3 266.2C205.6 265.4 206 264.5 206.4 263.7C213.6 249.8 230.1 246.3 243.3 240.8C248.4 238.5 252.2 236.5 246.9 231.2C239.6 223.8 230.6 218.4 221.9 212.9C213 207.5 203.9 202.4 194.7 197.5L191.3 195.7C183.5 191.5 174.7 189.7 166 188.3C158.4 187.3 142.4 185.5 136.8 190.9C136.8 190.9 136.9 190.7 136.9 190.4C136.9 190.1 136.8 190 136.8 189.9C136.8 189.9 137.1 190.2 137.5 190.4C140.1 191.8 143.1 192.6 146.1 193.5C156.2 196.5 166.5 199.6 175.9 204.7C180.8 207.4 185.6 210.5 189.6 214.6C193.5 220.6 197.2 226.9 199.9 233.6C203.5 243.6 206.1 254 208.9 264.2L209.3 265.9L209.5 266.8L209.6 267.2V267.3C209.4 266.4 208.1 265.6 207.2 265.8Z" fill="black"/>
<path d="M111.401 265.2C111.401 265.2 104.401 257.8 96.0007 252.6C77.4007 241.1 50.1007 235.8 49.8007 226.9C49.6007 216.9 82.8007 196 104.801 188.9C137.901 179.7 142.201 190.6 142.601 195.2C142.801 197.4 106.701 209 106.901 211.3V211.4C106.901 211.4 102.301 212.9 105.601 235.8C106.401 241.5 109.901 251.3 111.401 265.2Z" fill="white"/>
<path d="M112.5 267.5C111.6 267.9 110.1 267.6 109.4 266.8L109.3 266.6L109 266.3C108.7 265.9 107.6 264.8 107.2 264.5C104.8 262.1 102.2 259.7 99.5995 257.6C92.3995 251.8 83.8995 248 75.4995 244.2C68.9995 241.4 62.2995 238.9 56.0995 235.4C46.3995 230 46.8995 224.6 54.1995 217C64.3995 207 76.5995 199.3 89.3995 193C94.1995 190.7 99.1995 188.6 104.3 187C115.4 184 141.4 178.2 144.2 194.6C144.2 194.9 144.3 195.1 144.2 195.5C144.1 195.9 143.9 196.1 143.8 196.3C142.6 197.5 141 198.1 139.6 198.7C133.1 201.4 126.4 203.6 119.7 205.9C115.6 207.4 111.3 208.6 107.5 210.7C107.3 210.9 107 211.1 107.1 211.4C105.3 212.9 105.4 215.6 105.1 217.7C104.9 224.4 106 231.4 107.5 237.9C109.3 244.4 111.5 251.2 112.8 257.9C113.2 260 113.8 261.9 113.7 264C113.5 265.3 113 266.6 112.5 267.5ZM110.3 262.9C109.8 262.5 108.9 262.6 108.5 263C108 259.4 107.4 255.8 106.6 252.2C105.2 245.6 103 238.7 102.4 231.8L102.1 228.3C101.8 223.2 101 213.8 104.8 209.9C105.1 209.7 105.1 209.5 106.1 209.1L104.3 211.5C104.2 211 104.7 209.8 104.9 209.6C105.5 208.8 106 208.6 106.7 208.1C110.4 206 114.4 204.6 118.3 203C122.7 201.3 133.6 197.1 137.8 195.3C138.7 194.9 139.9 194.4 140.6 193.9C140.4 194.2 140.3 194.2 140.1 194.9C140 195.1 140.1 196 140 195.5C138.6 186.3 124.2 187.9 117.2 188.9C103.5 191.1 90.7995 196.5 78.5995 203.1C70.5995 207.6 62.4995 212.4 55.8995 218.9C53.6995 221.2 51.1995 223.8 50.9995 226.9C51.4995 231.4 59.6995 234.4 63.4995 236.3C72.0995 240 80.9995 243.1 89.4995 247.1C97.0995 250.6 104.2 255.4 110.5 260.9C111.2 261.5 112.4 262.6 113 263.2C112.9 263 112.2 262.6 111.6 262.5C111.2 262.6 110.7 262.7 110.3 262.9Z" fill="black"/>
<path d="M182.999 245.6C180.899 255.9 167.299 262.1 144.399 252.8C120.599 243.2 110.299 220.3 107.699 213.5C121.799 187.1 111.999 168.8 111.999 168.8C144.499 166 172.899 204 172.899 204L177.299 222.8C177.699 224.4 178.499 225.8 179.699 226.8C181.799 230.5 184.299 239 182.999 245.6Z" fill="white"/>
<path d="M107.2 213.8C109.1 210.9 110.3 207.5 111.1 204.2C112.6 197.3 113.1 190.3 113.2 183.3V180.7C112.9 178.1 112 175.4 111 173C109.7 169.8 114.4 167.8 115.9 171C116.1 171.4 116.1 172.1 116.1 172.5C116.4 186.1 117 203.6 108.4 214.9C107.8 215.5 106.6 214.6 107.2 213.8ZM174 203.8C175.5 204.7 176 205.9 176.2 207.1C176.8 209.5 176.6 212.1 177.2 214.6C177.7 217 179.2 219.3 179.6 221.8C180.1 224.4 181.6 229.9 182.2 232.6C182.4 233.2 182 233.9 181.3 234C180.9 234.1 180.6 234 180.3 233.8C179 232.7 178.4 231.6 177.6 230.2C176.3 227.8 175.4 225.6 174.6 222.9C173.9 220.5 174.2 217.9 173.6 215.4C173.1 213 171.7 210.7 171.2 208.2C170.9 207 170.8 205.7 171.7 204.2C172.3 203.6 173.3 203.4 174 203.8Z" fill="black"/>
<path d="M181.2 230.2C162.1 229.2 146.5 223.2 131.3 196.1C144.1 207.4 159.2 211.7 175.1 213.7L177.2 222.9C177.6 224.5 180 229.2 181.2 230.2Z" fill="black"/>
<path d="M180.4 226.5C183.8 232.9 185.8 240.9 183.7 248C182.1 253 177.5 256.7 172.5 258.1C160.9 261.2 147.5 256.3 137.2 250.8C124.5 243.7 115.1 231.8 109.1 218.8C108.7 217.8 110.1 217 110.7 218C112.8 222.2 115.2 226.3 117.9 230C120.6 233.8 123.7 237.3 127.2 240.4C137.4 249.6 151.2 255.3 165 255.3C179.2 254.9 184.6 247.4 181.3 233.6C180.8 231.4 180 229.1 178.9 227.2C178.3 226.4 179.8 225.5 180.4 226.5Z" fill="black"/>
<path d="M219.1 106.4C220.9 114.8 221.8 121.6 216.9 144C212.1 166.3 221.4 188.8 197.8 209.3C181.9 223.1 154.1 225.7 131.9 210.6C124.4 205.5 122.4 181.7 116.5 172.6C114 168.8 112.5 174.9 106.8 168.6C98.9002 160 89.4002 142.7 94.1002 112.1C101.7 62.5001 141 56.7001 170.1 62.2001C199.3 67.7001 214.3 84.3001 219.1 106.4Z" fill="white"/>
<path d="M111.7 177.4C109.4 173.6 106.5 170.3 103.8 166.8C99.7999 161.4 96.7999 155.2 94.7999 148.8C86.1999 121.4 90.7999 85.7001 116.2 68.6001C139.7 52.7001 184.6 57.5001 205.2 76.7001C215.5 86.0001 221.2 99.5001 222.4 113.1C223 122.2 220.8 131 218.9 139.8C216.7 148.4 216.2 157 216.2 165.9C216.1 174.8 215.7 184.1 212.3 192.5C207.1 205.3 196.2 215.7 183.1 220.1C165.9 226.1 145.6 222.7 131.5 211.2C130.9 210.7 131.5 209.9 132.2 210.2C150.7 220.7 175 222.5 193 210.4C203.7 203.2 211.1 191.8 212.8 179C214.2 170.3 213.8 161.5 214.6 152.7C214.9 148.8 216 143.4 216.8 139.5C218 133 218.8 126.5 218.7 120C218.6 113.6 217.2 107.3 215.3 101.2C208.7 79.5 189.8 66.7001 168 63.2001C135.4 57.5001 106.9 69.6001 98.3999 103.5C94.6999 120.1 91.7999 138.4 98.7999 154.5C101.3 160.6 105.4 165.8 110.1 170.3L114.7 175.2C116.7 177.2 113.3 179.8 111.7 177.4Z" fill="black"/>
<path d="M123.499 145.6C123.499 145.6 120.399 130.6 105.799 132.4C93.1994 134 88.7994 164.2 117.399 172.6" fill="white"/>
<path d="M116.1 159.5C113.8 158.2 112.2 156 112.1 153.3C112.2 151.3 112.5 149 112 147C111.7 145.1 109.7 144.6 108.2 144.7C106.6 145 105.6 147 105.3 148.6C105.3 148.7 105.2 149 105.2 149.1C105.1 149.6 104.3 149.6 104.1 149.1C102.8 145.2 105.7 140.9 109.9 141.4C115.8 141.8 116.6 148 115.5 152.7C114.9 154.7 115.7 156.5 116.8 158.2L117 158.5C117.5 159.1 116.7 159.9 116.1 159.5ZM196.1 135C197.6 142.1 200.4 148.7 203.9 154.9C207 162.5 199 169.7 191.9 169.4C191.1 169.4 191 168.3 191.7 168.1C196.2 166.7 200.3 163.7 201 159.1C201.3 157.7 200.9 156.5 200.2 155.3C196.9 149.1 194.9 142 195.4 135C195.4 134.5 196.1 134.5 196.1 135Z" fill="black"/>
<path d="M123 145.7C120.7 139.8 115.7 134.2 109 134.3C108.4 134.2 107.4 134.4 106.8 134.4C105.1 134.5 103.7 135.1 102.4 136.3C96 142.7 97.1 154 102.3 161.1C104.1 163.6 106.4 165.8 109 167.6C111.6 169.4 114.5 170.8 117.6 172C118.3 172.2 118 173.3 117.3 173.2C110.6 171.8 104.2 168.5 99.8 163C93 154.8 91.6 141.1 99.7 133.1C101.5 131.5 104 130.3 106.5 130.3C107.3 130.3 108.5 130.1 109.3 130.3C113.5 130.5 117.5 132.6 120.1 135.9C122.4 138.7 123.7 142.1 124.1 145.5C124.1 146.1 123.2 146.3 123 145.7Z" fill="black"/>
<path d="M226.7 82.6001C233.8 56.9001 205 40.8001 197.3 52.4001C191.7 60.8001 170.1 54.3001 137.3 53.7001C104.5 53.0001 95.7003 70.4001 95.3003 89.1001C95.3003 89.1001 80.9003 96.7001 81.8003 123.5C82.7003 151.3 111.3 173.7 114.8 187.8C114.8 187.8 115.2 189.6 111.4 170.3C89.6003 159.8 94.2003 133.9 105.9 132.4C114.8 131.3 119.5 136.5 121.7 140.7C122.6 141.9 131.1 152.3 131.3 118.3C131.4 95.1001 154 87.5001 179.7 96.9001C193.1 101.8 207.2 105.4 216.9 98.4001C218.5 103 220.2 108.1 218.9 114.3C222.8 110.7 226.1 105.4 227 98.9001C227.6 95.0001 226.6 91.6001 224.4 88.6001C225.3 86.9001 226.1 84.8001 226.7 82.6001Z" fill="black"/>
<path d="M174.2 122C176.4 121.8 177.5 119.2 176.3 117.2C175.6 116.2 174.7 115.3 173.4 114.8C169.6 113.6 157.2 116.3 151.8 122.5C147 128.2 164.2 122.9 174.2 122ZM200.6 123.6C198.9 123.1 198.4 120.6 199.8 119C200.5 118.2 201.5 117.5 202.6 117.3C206 116.7 213.8 119.8 216 125.7C218 130.8 208.7 125.6 200.6 123.6ZM158.8 145.2C156.4 145.1 154.6 143.1 154.8 140.7L154.9 137.9C155 135.5 157 133.7 159.4 133.9C161.8 134 163.6 136 163.4 138.4L163.3 141.2C163.2 143.5 161.2 145.3 158.8 145.2ZM200.9 146.7C198.7 146.6 197 144.7 197.1 142.5L197.2 139.9C197.3 137.7 199.2 136 201.4 136.1C203.6 136.2 205.3 138.1 205.2 140.3L205.1 142.9C205 145.1 203.1 146.8 200.9 146.7Z" fill="black"/>
<path d="M167.8 139.8C164.5 137.6 160.9 136.1 156.9 136.9C155.6 137.1 154.3 137.5 153.5 138.4C153.2 138.8 152.5 138.7 152.5 138.1C152.6 136.1 154.3 134.8 155.9 134C159 132.4 163.3 132.7 166.1 134.8C167.1 135.4 170.5 139.1 168.7 139.9C168.3 140.1 168.1 140 167.8 139.8ZM196.399 140.3C196.399 136.1 201.599 134.6 204.799 136.1C206.599 136.9 207.899 138.5 208.399 140.4C208.599 141 207.699 141.5 207.299 141C205.599 139 202.699 138 200.399 139.2C199.699 139.6 199.599 139.9 199.399 140.3C199.399 142.3 196.499 142.2 196.399 140.3Z" fill="black"/>
<path d="M186.2 179C186.3 180.6 185.1 183.4 182.9 185.4C171.6 178.5 166.5 182.1 166.5 182.1C162.5 176 163.4 167.7 173.1 174C179.8 178.4 184 179.1 186.2 179Z" fill="black"/>
<path d="M182.799 185.5C180.399 187.6 176.799 188.9 171.899 186.9C169.599 186 167.799 184.2 166.399 182.2C166.499 182.2 171.499 178.6 182.799 185.5Z" fill="white"/>
<path d="M188.1 178.7C188.1 178.7 183.9 181 173.1 174.1C160.2 165.8 162.8 183.2 171.9 186.9C181.4 190.8 186.3 182.3 186.2 179.1" stroke="black" stroke-width="3" stroke-miterlimit="10" stroke-linecap="round" stroke-linejoin="round"/>
<path d="M166.5 182.2C166.5 182.2 171.6 178.6 182.9 185.5" stroke="black" stroke-width="3" stroke-miterlimit="10" stroke-linecap="round" stroke-linejoin="round"/>
<path d="M174.7 157.5C174.7 157.5 165.3 163.4 154.7 163.3C144.1 163.2 142.8 154.9 142.7 150.4C142.7 150.4 144.1 156.9 150.5 159.3C156.8 161.7 174.7 157.5 174.7 157.5ZM204.899 156.4C204.899 156.4 207.199 159.2 210.299 161.2C212.399 162.6 215.199 161.1 215.199 158.6C215.199 158.6 209.399 158.9 204.899 156.4Z" fill="black"/>
<path d="M178.2 130.8C172.8 130.3 159.2 129.2 154 128.7L150 128.4C146.7 128.2 144.1 131 143.5 134.2C143.3 135.2 143.3 136.9 143.3 137.9V142C143.3 144.5 143.2 147.1 144.1 149.5C145.7 155.1 150.8 159.6 156.8 158.9C157.4 158.8 161.1 158.4 161.8 158.3L169.9 157.4C172.5 157.2 174.9 156.5 177.2 155.1C180.4 153.2 183.5 150.3 183.3 146.2L183.5 142.2C183.7 137.2 185.1 131.3 178.2 130.8ZM178.5 127.5C183.2 127.9 186.4 132.8 186.1 137.3C186.1 137.9 185.9 141.7 185.8 142.4C185.8 143.2 185.6 146.8 185.5 147.5C185 154.3 177.4 159.1 171.2 160C168 160.4 161.3 161.3 158.1 161.7C157.3 161.8 156.2 161.9 155.4 162C155 162 154.1 161.9 153.7 161.9C145.2 160.8 139.8 152.1 140 144V137.9C140 137.2 140 135.4 140.1 134.7C140.4 131.2 142.3 127.8 145.5 125.9C146.9 125.1 148.6 124.7 150.3 124.8L154.4 125.2C159.4 125.8 173.2 127.1 178.5 127.5ZM201.7 129.1C203.9 128.8 214.7 127.6 216.7 127.4C217.2 127.4 218.5 127.2 218.9 127.2C223.2 126.6 225.2 131.3 225.6 134.8C225.8 137.9 225.6 140.9 225.7 143.9C225.7 146 225.5 148.1 225 150.1C223.7 155.5 219.9 161.2 213.6 159.4C212.1 159.1 209.1 158.7 207.7 158.4L206.2 158.1C203.3 157.6 200.9 155.6 199.3 153.4C196.3 149.9 196.9 145.2 196.6 141C196.2 136.8 196.3 130.3 201.7 129.1ZM202.1 132C199 133.4 199.8 138.1 199.8 140.9L200 146.9C200.1 150.7 203.1 154.5 206.7 155.5C207.6 155.7 210.1 156.2 211.1 156.4L214 157C221.2 159.3 224 149.3 223.9 143.8C223.6 139.2 225 133.7 221.7 130C220.9 129.2 220.1 129 219.2 129.2C218.7 129.3 217.4 129.5 217 129.6C215 130 204.2 131.7 202.1 132Z" fill="black"/>
<path d="M141.6 138.4C140.8 140.2 140.1 140 138.7 140L135.8 139.9C132.1 139.7 128 139.4 124.3 138.9C122.3 138.6 120.2 138.3 118.2 137.8C117.4 137.6 116.9 136.8 117.1 136C117.3 135.3 117.9 134.8 118.6 134.9L124.4 135.2L130.2 135.4C132.1 135.5 137 135.6 138.9 135.7C139.9 135.7 140.8 135.8 141.8 135.5C142.2 135.4 142.6 135.6 142.7 136C142.8 136.2 142.7 136.3 142.7 136.5L141.6 138.4ZM184.2 136.3C187.8 134.3 197.3 131.5 199.1 136.9C199.9 138.3 197.8 139.6 196.9 138.2C196.9 138.4 196.4 138.2 196.2 138.2C192.4 137.9 188.5 138.5 184.7 138.8C183.1 139 182.8 136.9 184.2 136.3Z" fill="black"/>
</svg>
