<svg width="350" height="403" viewBox="0 0 350 403" fill="none" xmlns="http://www.w3.org/2000/svg">
<path d="M291.812 298.602C290.905 299.249 289.869 299.897 288.962 300.545C287.926 301.192 287.019 301.84 285.983 302.358C285.076 302.876 284.299 303.394 283.393 303.912C283.263 304.042 283.134 304.042 283.004 304.171C280.025 305.985 276.916 307.669 273.808 309.223C272.901 309.741 271.865 310.259 270.958 310.648C270.958 310.648 270.829 310.777 270.699 310.777L267.59 312.331C265.518 313.368 263.316 314.274 261.244 315.181C260.207 315.699 259.042 316.088 258.005 316.476C256.969 316.865 255.804 317.383 254.767 317.772C253.731 318.16 252.565 318.678 251.529 319.067H251.4C250.363 319.455 249.198 319.844 248.161 320.233C245.83 321.01 243.369 321.787 241.037 322.564C240.26 322.823 239.354 323.082 238.576 323.341C236.115 324.118 233.654 324.766 231.193 325.284C230.287 325.543 229.38 325.673 228.344 325.932C226.012 326.45 223.551 326.968 221.22 327.486C220.702 327.616 220.313 327.616 219.795 327.745C219.018 327.875 218.111 328.004 217.334 328.134C216.168 328.263 215.132 328.522 213.966 328.652C213.448 328.781 212.93 328.781 212.412 328.911C211.765 329.04 210.987 329.17 210.21 329.17C208.138 329.429 205.936 329.688 203.863 329.947C203.216 330.077 202.439 330.077 201.791 330.206H201.661C200.755 330.336 199.848 330.336 198.941 330.465C198.035 330.595 197.128 330.595 196.221 330.595C195.703 330.595 195.056 330.724 194.537 330.724C193.501 330.724 192.595 330.854 191.688 330.854C190.393 330.854 189.227 330.983 187.932 330.983H181.455C126.795 330.206 77.7046 307.021 42.6029 270.235C42.6029 270.235 42.6029 270.106 42.4734 270.106C38.5876 266.609 41.9553 247.957 57.628 236.17C77.316 221.274 124.464 211.948 124.464 211.948C124.464 211.948 142.727 208.969 210.469 223.088C250.104 231.377 280.284 243.423 297.122 276.064C300.62 282.799 304.117 293.162 291.812 298.602Z" fill="white"/>
<path d="M210.858 221.663C235.727 226.714 262.28 232.155 282.745 248.604C289.61 254.174 294.143 262.334 297.9 270.235C299.713 274.121 301.526 278.136 302.951 282.411C303.728 285.26 304.894 288.499 304.246 291.866C304.117 292.773 303.34 293.939 302.692 294.586C299.713 297.565 296.475 299.379 293.237 301.71C274.196 314.922 252.306 324.248 229.639 329.17C179.124 340.18 124.464 331.631 80.0361 305.078C65.2701 296.141 51.6698 285.26 40.0124 272.437C38.7171 270.883 38.7171 268.292 38.7171 266.609C38.8467 262.723 39.8829 258.967 41.1781 255.469C44.2868 247.439 48.3021 239.408 55.167 233.838C60.089 230.471 65.3996 227.621 70.8397 225.29C87.9372 218.036 105.941 212.985 124.464 210.912C126.018 210.783 126.277 212.985 124.723 213.244C106.978 216.87 89.362 222.311 72.9121 229.694C66.9539 232.673 60.6071 235.263 55.8146 239.926C51.2812 244.848 48.043 250.936 45.4525 257.153C43.7687 260.909 42.6029 266.868 43.121 269.847C51.2812 279.561 60.8662 288.11 71.2283 295.493C127.961 335.128 214.096 337.719 274.455 304.689C279.895 301.71 285.206 298.343 290.258 294.845C292.719 293.162 295.309 291.737 297.252 289.794C297.381 289.664 297.252 289.794 297.252 289.923C297.252 290.053 297.122 290.182 297.122 290.182C297.252 288.628 296.734 286.556 296.086 284.483C293.755 276.971 289.998 269.07 285.983 262.205C279.636 251.972 268.886 245.496 258.005 240.315C250.493 236.817 242.592 234.097 234.561 231.507C226.531 228.916 218.37 226.714 210.21 224.772C208.138 224.253 208.785 221.274 210.858 221.663Z" fill="black"/>
<path d="M101.408 210.783C101.408 210.783 120.32 203.27 123.817 203.011L124.076 205.99C124.076 205.99 109.051 212.467 108.145 213.503C107.367 214.409 101.408 210.783 101.408 210.783Z" fill="#7E5D6D"/>
<path d="M334.815 378.908H7.24221C7.24221 378.908 9.18511 318.808 28.8731 275.935C43.7687 243.553 79.518 222.181 105.553 212.855C112.936 210.265 118.635 207.415 123.946 205.99C123.946 206.638 124.334 211.43 124.334 211.948C124.334 211.948 139.489 189.411 185.73 191.872C207.102 193.038 224.199 198.866 224.199 198.866C226.66 198.348 223.163 211.042 225.365 210.394C226.142 210.135 227.696 217.907 228.344 217.648C245.053 222.051 265.518 234.486 295.18 259.355C328.856 287.592 334.815 378.908 334.815 378.908Z" fill="black"/>
<path d="M271.735 247.18C280.105 247.18 286.89 240.395 286.89 232.025C286.89 223.655 280.105 216.87 271.735 216.87C263.367 216.87 256.581 223.655 256.581 232.025C256.581 240.395 263.367 247.18 271.735 247.18Z" fill="#FFFF8D"/>
<path d="M101.408 210.784C103.869 210.007 108.143 210.784 109.439 212.986C114.49 221.276 126.666 245.497 131.717 293.551C135.732 331.114 129.645 398.727 129.645 398.727L3.87452 392.769C3.87452 392.769 7.63079 328.912 18.6405 286.039C29.5208 244.461 57.7575 225.809 101.408 210.784Z" fill="white"/>
<path d="M100.501 208.063C104.776 206.897 109.957 207.933 112.288 211.948C119.283 223.735 123.687 236.947 127.184 250.159C131.329 266.35 134.049 282.929 135.473 299.508C137.546 332.797 135.603 365.826 133.012 399.114C132.883 400.928 131.329 402.223 129.515 402.093L3.745 396.135C1.93163 396.135 0.506836 394.581 0.506836 392.638C1.8021 373.727 3.745 355.075 6.206 336.294C8.92606 317.513 11.7756 298.861 17.0862 280.597C29.3912 239.797 62.55 221.015 100.501 208.063ZM102.444 213.632C84.9581 219.591 65.9177 223.865 51.4107 236.04C44.4163 241.999 39.2352 250.029 34.3132 257.671C24.0807 273.085 20.4539 291.478 17.3453 309.611C12.5528 337.201 9.70322 365.178 7.37174 393.026C7.37174 393.026 4.13358 389.529 4.2631 389.529L130.033 395.487L126.536 398.467C127.572 382.017 128.609 365.567 129.127 349.117C130.81 308.446 128.609 266.738 113.842 228.528C111.9 223.735 109.827 219.072 107.107 214.669C106.071 213.632 103.61 213.244 102.444 213.632Z" fill="black"/>
<path d="M231.712 218.684C231.712 218.684 271.735 293.939 260.078 394.451H346.472C346.472 394.451 346.083 314.663 326.654 271.272C307.226 228.01 239.224 215.316 239.224 215.316C239.224 215.316 234.95 217.518 231.712 218.684Z" fill="white"/>
<path d="M234.82 219.85C235.209 219.461 235.338 218.684 235.209 218.166V218.036C235.856 219.461 236.634 220.886 237.281 222.311C255.933 263.889 265 309.611 265.518 355.075C265.648 359.22 265.259 368.028 265.129 372.173C265 378.908 263.834 388.104 263.446 394.84L260.207 391.084H346.602L343.234 394.451C343.234 384.866 342.716 375.152 342.198 365.567C339.996 333.056 335.203 276.712 312.536 252.62C294.921 233.709 263.834 222.311 238.706 218.554L240.778 218.295C238.965 219.202 236.893 220.109 235.079 220.886L234.043 221.274L233.784 221.404C234.173 221.274 234.691 220.497 234.82 219.85ZM228.603 217.518C229.121 216.611 230.287 215.575 231.453 215.187L232.359 214.798C234.173 214.021 236.115 213.114 237.929 212.207C238.576 211.948 239.224 211.819 239.872 212.078C244.794 213.503 249.457 214.928 254.12 216.482C258.783 218.166 263.316 219.85 267.849 221.792C281.32 227.621 294.532 234.486 305.801 243.812C314.868 251.195 323.934 259.355 328.986 270.235C338.182 291.089 342.457 313.627 345.565 336.035C348.285 355.464 349.581 374.893 349.84 394.451C349.84 396.265 348.415 397.819 346.472 397.819H260.078C258.135 397.819 256.581 396.006 256.84 394.063C257.358 387.327 258.394 378.39 258.524 371.784C258.653 367.769 259.042 358.961 258.912 355.075C258.653 316.088 251.4 276.971 237.67 240.444C235.209 233.968 232.489 227.492 229.51 221.404C228.732 220.368 228.344 218.684 228.603 217.518Z" fill="black"/>
<path d="M231.712 218.684L228.603 217.777C228.603 217.777 233.136 215.575 235.079 214.28L236.245 213.632C236.245 213.632 242.462 216.482 244.664 217.518C246.866 218.554 237.022 223.347 237.022 223.347C237.022 223.347 232.1 218.813 231.712 218.684Z" fill="#7E5D6D"/>
<path d="M90.6573 255.21C90.6573 255.21 72.7826 267.774 74.4664 281.116C76.1503 294.457 131.199 378.001 131.199 378.001C131.199 378.001 137.675 332.667 130.292 281.375C130.292 281.375 124.982 274.251 115.267 267.127C108.791 262.593 100.631 257.93 90.6573 255.21Z" fill="white"/>
<path d="M91.3049 258.578C91.6935 258.578 92.082 258.319 92.4706 258.06L92.2116 258.189C84.8286 262.852 75.7617 271.272 76.4093 280.727C77.1865 284.742 79.3884 288.758 81.3313 292.514C85.4762 300.415 90.0096 308.187 94.6726 315.958C103.998 331.372 113.842 346.526 123.946 361.422L134.178 376.318L128.09 377.613C129.127 369.841 129.774 361.811 130.163 353.78C131.458 329.818 130.551 305.726 127.184 282.022L127.831 283.577C123.039 277.618 117.081 272.437 110.863 268.163C105.035 264.277 98.8174 261.169 92.082 259.096L91.823 258.967C91.4344 258.837 91.4344 258.708 91.3049 258.578ZM90.1391 251.972C91.3049 252.102 92.7297 252.361 93.8954 252.749C105.164 256.247 115.526 262.464 124.334 270.365C127.572 273.215 130.292 276.064 133.142 279.561C133.531 279.95 133.66 280.468 133.79 280.986C137.157 305.208 138.064 329.688 136.898 354.169C136.51 362.329 135.862 370.359 134.826 378.649C134.567 381.758 130.292 382.664 128.738 379.944C120.06 365.437 109.439 347.951 100.89 333.444C95.4497 324.118 87.8077 311.425 82.7561 302.099C79.9066 296.788 76.9274 291.478 74.7255 285.779C73.8188 283.706 73.3007 281.116 73.3007 278.655C74.2074 268.292 81.7199 260.262 88.5848 253.008C88.7144 252.49 89.4915 252.102 90.1391 251.972Z" fill="black"/>
<path d="M299.842 281.245C300.361 272.955 281.191 259.485 281.191 259.485C273.549 261.687 268.109 265.184 264.223 268.94C255.544 277.1 254.379 286.297 254.379 286.297L254.897 288.628C264.093 328.652 261.373 380.721 261.373 380.721C261.373 380.721 299.324 289.535 299.842 281.245Z" fill="white"/>
<path d="M298.288 281.116C297.641 273.473 285.595 265.572 279.248 262.205L282.097 262.723C270.44 265.961 260.078 274.639 257.617 286.815L257.487 285.519C259.301 293.291 260.855 301.322 261.762 309.223C264.87 333.056 265.518 356.889 264.611 380.851C264.611 380.98 258.264 379.426 258.264 379.426C264.87 365.567 273.549 344.972 279.636 330.595C283.134 322.434 286.372 314.145 289.61 305.855C292.719 297.695 296.345 289.535 298.288 281.116ZM300.62 281.245C299.843 285.779 298.159 289.923 296.734 294.198C292.33 306.762 287.278 319.196 282.745 331.76C278.471 343.159 270.57 364.272 266.554 375.54L264.352 381.887C263.057 385.514 257.617 384.348 258.005 380.462C258.912 357.018 258.265 333.315 255.156 310C254.249 302.228 252.695 294.586 251.011 287.074C250.752 285.649 251.27 284.224 251.659 282.929C255.415 269.717 267.331 259.873 280.284 256.376C281.32 255.987 282.356 256.246 283.134 256.894C286.113 260.262 290.646 264.666 293.496 268.163C296.475 271.79 300.62 275.935 300.62 281.245Z" fill="black"/>
<path d="M254.38 285.519C254.38 285.519 245.702 251.843 241.427 241.092C237.153 230.471 229.122 218.425 228.734 217.777C201.404 192.001 151.406 192.001 161.121 182.416C171.872 171.795 216.429 179.049 232.62 187.079C247.127 194.721 308.522 230.341 310.595 242.258C312.667 255.469 262.411 254.692 254.38 285.519Z" fill="white"/>
<path d="M254.379 288.887C252.954 288.758 251.4 287.462 251.011 286.038V285.908L250.622 284.354L250.104 282.152C246.737 269.199 243.498 255.599 239.095 243.035C235.986 234.745 231.453 226.973 226.66 219.331L227.049 219.72C222.386 215.187 216.816 211.56 211.117 208.322C199.33 201.975 186.507 197.96 173.684 194.203C169.28 192.519 158.529 190.706 157.882 185.266C157.882 179.567 166.689 177.106 170.834 176.329C187.932 173.738 205.418 176.847 221.868 181.38C226.012 182.675 230.157 184.1 234.043 186.043C235.468 186.82 239.354 189.022 240.778 189.799C252.565 196.535 264.093 203.659 275.492 211.171C286.89 218.684 298.418 225.937 308.003 235.911C315.774 243.941 311.111 249.123 302.563 252.879C290.387 258.319 277.046 262.075 267.202 271.012C263.705 274.251 260.855 278.007 259.171 282.281C258.524 283.706 258.524 284.354 257.876 286.038C257.228 287.074 255.544 288.499 254.379 288.887ZM254.379 282.281C253.602 281.763 252.177 282.281 251.788 282.929C251.529 283.447 251.788 282.929 251.918 282.799C252.306 281.763 252.824 280.597 253.342 279.561C262.668 261.557 284.04 257.024 301.138 249.9C307.744 246.921 312.666 244.33 305.801 237.465C296.345 227.88 284.688 220.886 273.419 213.762C261.891 206.767 250.104 200.162 238.188 193.815L233.784 191.483C223.681 186.043 212.283 183.712 201.014 181.898C191.17 180.603 170.446 178.272 163.192 185.266C163.192 185.266 163.322 185.007 163.322 184.618C163.322 184.23 163.192 184.1 163.192 183.971C163.192 183.971 163.581 184.359 164.099 184.618C167.466 186.432 171.352 187.468 175.238 188.634C188.32 192.519 201.661 196.535 213.837 203.141C220.184 206.638 226.401 210.653 231.582 215.964C236.634 223.735 241.426 231.896 244.923 240.574C249.586 253.526 252.954 266.997 256.581 280.209L257.099 282.411L257.358 283.577L257.487 284.095V284.224C257.228 283.058 255.544 282.022 254.379 282.281Z" fill="black"/>
<path d="M130.294 281.504C130.294 281.504 121.227 271.919 110.347 265.184C86.2547 250.288 50.8939 243.423 50.5053 231.895C50.2463 218.943 93.2491 191.872 121.745 182.675C164.618 170.759 170.188 184.877 170.706 190.836C170.965 193.685 124.206 208.71 124.465 211.689V211.819C124.465 211.819 118.507 213.762 122.781 243.423C123.817 250.806 128.351 263.5 130.294 281.504Z" fill="white"/>
<path d="M131.717 284.483C130.551 285.001 128.608 284.613 127.702 283.577L127.572 283.318L127.184 282.929C126.795 282.411 125.37 280.986 124.852 280.597C121.744 277.489 118.376 274.38 115.008 271.66C105.682 264.148 94.6726 259.226 83.7923 254.304C75.3731 250.677 66.6949 247.439 58.6642 242.905C46.1001 235.911 46.7478 228.916 56.2032 219.072C69.4149 206.12 85.2171 196.146 101.797 187.986C108.014 185.007 114.49 182.287 121.096 180.214C135.473 176.329 169.15 168.816 172.777 190.058C172.777 190.447 172.907 190.706 172.777 191.224C172.647 191.742 172.388 192.001 172.259 192.26C170.705 193.815 168.632 194.592 166.819 195.369C158.4 198.866 149.721 201.716 141.043 204.695C135.732 206.638 130.163 208.192 125.241 210.912C124.982 211.171 124.593 211.43 124.723 211.819C122.391 213.762 122.521 217.259 122.132 219.979C121.873 228.657 123.298 237.724 125.241 246.143C127.572 254.563 130.422 263.37 132.106 272.049C132.624 274.769 133.401 277.23 133.271 279.95C133.012 281.634 132.365 283.318 131.717 284.483ZM128.868 278.525C128.22 278.007 127.054 278.136 126.536 278.655C125.888 273.992 125.111 269.329 124.075 264.666C122.262 256.117 119.412 247.18 118.635 238.242L118.246 233.709C117.858 227.103 116.822 214.928 121.744 209.876C122.132 209.617 122.132 209.358 123.427 208.84L121.096 211.948C120.966 211.301 121.614 209.747 121.873 209.487C122.65 208.451 123.298 208.192 124.205 207.545C128.997 204.825 134.178 203.011 139.23 200.939C144.929 198.737 159.047 193.297 164.487 190.965C165.653 190.447 167.207 189.799 168.114 189.152C167.855 189.54 167.725 189.54 167.466 190.447C167.337 190.706 167.466 191.872 167.337 191.224C165.524 179.308 146.872 181.38 137.805 182.675C120.06 185.525 103.61 192.519 87.8077 201.068C77.4455 206.897 66.9539 213.114 58.4052 221.533C55.5556 224.513 52.3174 227.88 52.0584 231.896C52.706 237.724 63.3272 241.61 68.2492 244.071C79.3884 248.863 90.9163 252.879 101.926 258.06C111.77 262.593 120.966 268.811 129.127 275.935C130.033 276.712 131.588 278.136 132.365 278.914C132.235 278.655 131.329 278.136 130.551 278.007C130.033 278.136 129.386 278.266 128.868 278.525Z" fill="black"/>
<path d="M223.032 256.117C220.312 269.458 202.696 277.489 173.035 265.443C142.207 253.008 128.866 223.347 125.499 214.539C143.762 180.344 131.068 156.641 131.068 156.641C173.164 153.014 209.95 202.234 209.95 202.234L215.649 226.585C216.167 228.657 217.203 230.471 218.758 231.766C221.478 236.558 224.716 247.568 223.032 256.117Z" fill="white"/>
<path d="M124.852 214.928C127.313 211.171 128.868 206.767 129.904 202.493C131.847 193.556 132.494 184.489 132.624 175.422V172.054C132.235 168.687 131.07 165.189 129.774 162.081C128.09 157.936 134.178 155.345 136.121 159.49C136.38 160.008 136.38 160.915 136.38 161.433C136.769 179.049 137.546 201.716 126.407 216.352C125.629 217.129 124.075 215.964 124.852 214.928ZM211.376 201.975C213.319 203.141 213.966 204.695 214.225 206.249C215.003 209.358 214.744 212.726 215.521 215.964C216.168 219.072 218.111 222.052 218.629 225.29C219.277 228.657 221.22 235.781 221.997 239.279C222.256 240.056 221.738 240.962 220.831 241.092C220.313 241.221 219.925 241.092 219.536 240.833C217.852 239.408 217.075 237.983 216.039 236.17C214.355 233.061 213.189 230.212 212.153 226.714C211.246 223.606 211.635 220.238 210.858 217C210.21 213.891 208.397 210.912 207.749 207.674C207.361 206.12 207.231 204.436 208.397 202.493C209.174 201.716 210.469 201.457 211.376 201.975Z" fill="black"/>
<path d="M220.702 236.17C195.962 234.875 175.756 227.103 156.068 192.001C172.648 206.638 192.206 212.207 212.801 214.798L215.521 226.714C216.039 228.787 219.148 234.875 220.702 236.17Z" fill="black"/>
<path d="M219.666 231.377C224.07 239.667 226.66 250.029 223.94 259.226C221.868 265.702 215.909 270.494 209.433 272.308C194.408 276.323 177.051 269.976 163.71 262.852C147.26 253.656 135.085 238.242 127.313 221.404C126.795 220.109 128.609 219.072 129.386 220.368C132.106 225.808 135.214 231.118 138.712 235.911C142.209 240.833 146.224 245.366 150.758 249.382C163.969 261.298 181.844 268.681 199.719 268.681C218.111 268.163 225.106 258.448 220.831 240.574C220.184 237.724 219.148 234.745 217.723 232.284C216.946 231.248 218.888 230.082 219.666 231.377Z" fill="black"/>
<path d="M269.792 75.8161C272.124 86.6964 273.29 95.5041 266.943 124.518C260.726 153.402 272.771 182.546 242.203 209.099C221.609 226.974 185.6 230.341 156.845 210.783C147.131 204.177 144.54 173.35 136.898 161.563C133.66 156.641 131.717 164.542 124.334 156.382C114.102 145.242 101.797 122.834 107.884 83.1991C117.728 18.954 168.632 11.4415 206.324 18.5654C244.146 25.6894 263.575 47.1908 269.792 75.8161Z" fill="white"/>
<path d="M130.681 167.78C127.702 162.858 123.946 158.584 120.448 154.05C115.267 147.056 111.381 139.025 108.791 130.735C97.6517 95.2451 103.61 49.0042 136.51 26.8551C166.948 6.26042 225.106 12.4777 251.788 37.3468C265.129 49.3927 272.512 66.8788 274.067 84.4944C274.844 96.2813 271.994 107.68 269.533 119.078C266.684 130.217 266.036 141.357 266.036 152.884C265.907 164.412 265.388 176.458 260.985 187.338C254.249 203.918 240.131 217.389 223.163 223.088C200.884 230.859 174.59 226.455 156.327 211.56C155.55 210.912 156.327 209.876 157.234 210.265C181.196 223.865 212.671 226.196 235.986 210.524C249.845 201.198 259.43 186.432 261.632 169.852C263.446 158.584 262.927 147.185 263.964 135.787C264.352 130.735 265.777 123.741 266.813 118.689C268.368 110.27 269.404 101.851 269.274 93.4317C269.145 85.142 267.331 76.9819 264.87 69.0807C256.322 40.9735 231.841 24.3941 203.604 19.8607C161.379 12.4777 124.464 28.1504 113.454 72.0599C108.661 93.5613 104.905 117.265 113.972 138.118C117.21 146.019 122.521 152.755 128.609 158.584L134.567 164.93C137.157 167.521 132.753 170.889 130.681 167.78Z" fill="black"/>
<path d="M145.964 126.59C145.964 126.59 141.948 107.162 123.038 109.493C106.717 111.565 101.018 150.682 138.063 161.563" fill="white"/>
<path d="M136.38 144.595C133.401 142.911 131.329 140.061 131.199 136.564C131.329 133.974 131.717 130.994 131.07 128.404C130.681 125.943 128.09 125.295 126.148 125.425C124.075 125.813 122.78 128.404 122.391 130.476C122.391 130.606 122.262 130.994 122.262 131.124C122.132 131.772 121.096 131.772 120.837 131.124C119.153 126.072 122.909 120.503 128.349 121.15C135.992 121.668 137.028 129.699 135.603 135.787C134.826 138.377 135.862 140.709 137.287 142.911L137.546 143.299C138.193 144.077 137.157 145.113 136.38 144.595ZM240.001 112.861C241.944 122.057 245.571 130.606 250.104 138.636C254.12 148.48 243.758 157.806 234.561 157.418C233.525 157.418 233.395 155.993 234.302 155.734C240.131 153.921 245.441 150.035 246.348 144.077C246.737 142.263 246.219 140.709 245.312 139.155C241.037 131.124 238.447 121.928 239.095 112.861C239.095 112.213 240.001 112.213 240.001 112.861Z" fill="black"/>
<path d="M145.317 126.72C142.338 119.078 135.862 111.825 127.184 111.954C126.407 111.825 125.111 112.084 124.334 112.084C122.132 112.213 120.319 112.99 118.635 114.545C110.345 122.834 111.77 137.471 118.505 146.667C120.837 149.905 123.816 152.755 127.184 155.086C130.551 157.418 134.308 159.231 138.323 160.786C139.23 161.045 138.841 162.469 137.934 162.34C129.256 160.526 120.966 156.252 115.267 149.128C106.459 138.507 104.646 120.762 115.138 110.4C117.469 108.327 120.707 106.773 123.946 106.773C124.982 106.773 126.536 106.514 127.572 106.773C133.012 107.032 138.193 109.752 141.561 114.026C144.54 117.653 146.224 122.057 146.742 126.461C146.742 127.238 145.576 127.497 145.317 126.72Z" fill="black"/>
<path d="M279.636 44.9888C288.833 11.7005 251.529 -9.15323 241.556 5.87184C234.302 16.7521 206.324 8.33285 163.84 7.55569C121.355 6.649 109.957 29.1866 109.439 53.4081C109.439 53.4081 90.7868 63.2521 91.9525 97.9652C93.1183 133.974 130.163 162.987 134.696 181.251C134.696 181.251 135.214 183.582 130.292 158.584C102.056 144.983 108.014 111.436 123.168 109.493C134.696 108.068 140.784 114.804 143.634 120.244C144.799 121.798 155.809 135.269 156.068 91.2298C156.198 61.1796 185.471 51.3356 218.759 63.5111C236.115 69.8579 254.379 74.5209 266.943 65.454C269.015 71.4122 271.217 78.0181 269.533 86.0487C274.585 81.3858 278.859 74.5209 280.025 66.1017C280.802 61.0501 279.507 56.6462 276.657 52.7604C277.823 50.5585 278.859 47.8384 279.636 44.9888Z" fill="black"/>
<path d="M211.635 96.0223C214.485 95.7632 215.909 92.3955 214.355 89.805C213.448 88.5097 212.283 87.344 210.599 86.6964C205.677 85.142 189.615 88.6393 182.621 96.6699C176.404 104.053 198.682 97.188 211.635 96.0223ZM245.83 98.0947C243.628 97.447 242.98 94.2089 244.794 92.1365C245.7 91.1003 246.996 90.1936 248.421 89.9345C252.824 89.1574 262.927 93.1727 265.777 100.815C268.368 107.421 256.322 100.685 245.83 98.0947ZM191.688 126.072C188.579 125.943 186.248 123.352 186.507 120.244L186.636 116.617C186.766 113.508 189.356 111.177 192.465 111.436C195.574 111.565 197.905 114.156 197.646 117.265L197.517 120.891C197.387 123.87 194.797 126.202 191.688 126.072ZM246.219 128.015C243.369 127.886 241.167 125.425 241.297 122.575L241.426 119.207C241.556 116.358 244.017 114.156 246.866 114.285C249.716 114.415 251.918 116.876 251.788 119.726L251.659 123.093C251.529 125.943 249.068 128.145 246.219 128.015Z" fill="black"/>
<path d="M203.345 119.078C199.071 116.228 194.408 114.285 189.227 115.322C187.543 115.581 185.859 116.099 184.823 117.265C184.434 117.783 183.528 117.653 183.528 116.876C183.657 114.286 185.859 112.602 187.932 111.565C191.947 109.493 197.517 109.882 201.143 112.602C202.439 113.379 206.842 118.171 204.511 119.207C203.993 119.467 203.734 119.337 203.345 119.078ZM240.389 119.726C240.389 114.285 247.124 112.343 251.269 114.285C253.6 115.322 255.284 117.394 255.932 119.855C256.191 120.632 255.025 121.28 254.507 120.632C252.305 118.042 248.549 116.746 245.57 118.301C244.663 118.819 244.533 119.208 244.274 119.726C244.274 122.316 240.518 122.187 240.389 119.726Z" fill="black"/>
<path d="M227.178 169.852C227.308 171.925 225.753 175.551 222.904 178.142C208.267 169.205 201.661 173.868 201.661 173.868C196.48 165.967 197.646 155.216 210.21 163.376C218.888 169.075 224.329 169.982 227.178 169.852Z" fill="black"/>
<path d="M222.773 178.272C219.664 180.992 215.001 182.675 208.655 180.085C205.675 178.919 203.344 176.588 201.531 173.997C201.66 173.997 208.136 169.334 222.773 178.272Z" fill="white"/>
<path d="M212.283 142.004C212.283 142.004 200.107 149.646 186.377 149.517C172.647 149.387 170.964 138.636 170.834 132.808C170.834 132.808 172.648 141.227 180.937 144.336C189.097 147.444 212.283 142.004 212.283 142.004ZM251.398 140.579C251.398 140.579 254.377 144.206 258.393 146.797C261.113 148.61 264.74 146.667 264.74 143.429C264.74 143.429 257.227 143.818 251.398 140.579Z" fill="black"/>
<path d="M216.816 107.421C209.822 106.773 192.206 105.348 185.471 104.701L180.29 104.312C176.015 104.053 172.648 107.68 171.87 111.824C171.611 113.12 171.611 115.322 171.611 116.617V121.928C171.611 125.166 171.482 128.533 172.648 131.642C174.72 138.896 181.326 144.724 189.097 143.818C189.875 143.688 194.667 143.17 195.574 143.04L206.065 141.875C209.433 141.616 212.542 140.709 215.521 138.896C219.666 136.435 223.681 132.678 223.422 127.368L223.681 122.187C223.94 115.71 225.753 108.068 216.816 107.421ZM217.205 103.146C223.292 103.664 227.437 110.011 227.049 115.84C227.049 116.617 226.79 121.539 226.66 122.446C226.66 123.482 226.401 128.145 226.271 129.051C225.624 137.859 215.78 144.077 207.749 145.242C203.604 145.76 194.926 146.926 190.781 147.444C189.745 147.574 188.32 147.703 187.284 147.833C186.766 147.833 185.6 147.703 185.082 147.703C174.072 146.279 167.078 135.01 167.337 124.518V116.617C167.337 115.71 167.337 113.379 167.466 112.472C167.855 107.939 170.316 103.535 174.461 101.074C176.274 100.038 178.476 99.5195 180.678 99.649L185.989 100.167C192.465 100.944 210.34 102.628 217.205 103.146ZM247.255 105.219C250.104 104.83 264.093 103.276 266.684 103.017C267.331 103.017 269.015 102.758 269.533 102.758C275.103 101.98 277.693 108.068 278.212 112.602C278.471 116.617 278.212 120.503 278.341 124.389C278.341 127.109 278.082 129.829 277.434 132.419C275.751 139.414 270.829 146.797 262.668 144.465C260.725 144.077 256.84 143.558 255.026 143.17L253.083 142.781C249.327 142.134 246.219 139.543 244.146 136.694C240.26 132.16 241.037 126.072 240.649 120.632C240.131 115.192 240.26 106.773 247.255 105.219ZM247.773 108.975C243.758 110.788 244.794 116.876 244.794 120.503L245.053 128.274C245.182 133.196 249.068 138.118 253.731 139.414C254.897 139.673 258.135 140.32 259.43 140.579L263.186 141.357C272.512 144.336 276.139 131.383 276.01 124.259C275.621 118.301 277.434 111.177 273.16 106.384C272.124 105.348 271.088 105.089 269.922 105.348C269.274 105.478 267.59 105.737 267.072 105.866C264.482 106.384 250.493 108.586 247.773 108.975Z" fill="black"/>
<path d="M169.409 117.265C168.373 119.596 167.466 119.337 165.653 119.337L161.897 119.208C157.104 118.948 151.794 118.56 147.001 117.912C144.411 117.524 141.691 117.135 139.1 116.487C138.064 116.228 137.416 115.192 137.675 114.156C137.934 113.249 138.712 112.602 139.618 112.731L147.131 113.12L154.643 113.379C157.104 113.508 163.451 113.638 165.912 113.767C167.207 113.767 168.373 113.897 169.668 113.508C170.187 113.379 170.705 113.638 170.834 114.156C170.964 114.415 170.834 114.545 170.834 114.804L169.409 117.265ZM224.588 114.545C229.251 111.954 241.556 108.327 243.887 115.322C244.923 117.135 242.203 118.819 241.037 117.006C241.037 117.265 240.39 117.006 240.131 117.006C235.209 116.617 230.157 117.394 225.235 117.783C223.163 118.042 222.774 115.322 224.588 114.545Z" fill="black"/>
</svg>
